<svg xmlns="http://www.w3.org/2000/svg" width="600" height="600"><path d="M392,360L654,531L450,279Z" fill="rgb(169,183,173)" stroke="rgb(169,183,173)" stroke-width="1.51"/><path d="M654,531L764,419L450,279Z" fill="rgb(194,204,196)" stroke="rgb(194,204,196)" stroke-width="1.51"/><path d="M392,360L542,633L654,531Z" fill="rgb(199,208,202)" stroke="rgb(199,208,202)" stroke-width="1.51"/><path d="M542,633L714,708L654,531Z" fill="rgb(233,237,234)" stroke="rgb(233,237,234)" stroke-width="1.51"/><path d="M392,360L502,678L542,633Z" fill="rgb(199,208,201)" stroke="rgb(199,208,201)" stroke-width="1.51"/><path d="M654,531L714,708L764,419Z" fill="rgb(223,228,224)" stroke="rgb(223,228,224)" stroke-width="1.51"/><path d="M502,678L714,708L542,633Z" fill="rgb(230,234,231)" stroke="rgb(230,234,231)" stroke-width="1.51"/><path d="M802,148L519,68L450,279Z" fill="rgb(197,207,200)" stroke="rgb(197,207,200)" stroke-width="1.51"/><path d="M450,279L61,252L392,360Z" fill="rgb(114,135,120)" stroke="rgb(114,135,120)" stroke-width="1.51"/><path d="M764,419L802,148L450,279Z" fill="rgb(176,188,178)" stroke="rgb(176,188,178)" stroke-width="1.51"/><path d="M502,678L715,791L714,708Z" fill="rgb(233,237,234)" stroke="rgb(233,237,234)" stroke-width="1.51"/><path d="M714,708L984,707L764,419Z" fill="rgb(233,237,234)" stroke="rgb(233,237,234)" stroke-width="1.51"/><path d="M764,419L984,707L802,148Z" fill="rgb(197,206,199)" stroke="rgb(197,206,199)" stroke-width="1.51"/><path d="M519,68L371,-10L450,279Z" fill="rgb(178,191,182)" stroke="rgb(178,191,182)" stroke-width="1.51"/><path d="M575,-60L371,-10L519,68Z" fill="rgb(210,217,212)" stroke="rgb(210,217,212)" stroke-width="1.51"/><path d="M802,148L575,-60L519,68Z" fill="rgb(222,228,223)" stroke="rgb(222,228,223)" stroke-width="1.51"/><path d="M392,360L184,718L502,678Z" fill="rgb(181,192,184)" stroke="rgb(181,192,184)" stroke-width="1.51"/><path d="M502,678L272,940L715,791Z" fill="rgb(211,219,213)" stroke="rgb(211,219,213)" stroke-width="1.51"/><path d="M61,252L86,507L392,360Z" fill="rgb(151,167,155)" stroke="rgb(151,167,155)" stroke-width="1.51"/><path d="M86,507L184,718L392,360Z" fill="rgb(173,186,177)" stroke="rgb(173,186,177)" stroke-width="1.51"/><path d="M170,-19L61,252L450,279Z" fill="rgb(153,168,156)" stroke="rgb(153,168,156)" stroke-width="1.51"/><path d="M715,791L984,707L714,708Z" fill="rgb(233,237,234)" stroke="rgb(233,237,234)" stroke-width="1.51"/><path d="M84,-178L170,-19L371,-10Z" fill="rgb(190,200,193)" stroke="rgb(190,200,193)" stroke-width="1.51"/><path d="M371,-10L170,-19L450,279Z" fill="rgb(161,176,165)" stroke="rgb(161,176,165)" stroke-width="1.51"/><path d="M-24,583L124,799L184,718Z" fill="rgb(213,220,215)" stroke="rgb(213,220,215)" stroke-width="1.51"/><path d="M184,718L272,940L502,678Z" fill="rgb(176,188,179)" stroke="rgb(176,188,179)" stroke-width="1.51"/><path d="M802,148L825,-116L575,-60Z" fill="rgb(233,237,234)" stroke="rgb(233,237,234)" stroke-width="1.51"/><path d="M84,-178L34,-49L170,-19Z" fill="rgb(213,220,215)" stroke="rgb(213,220,215)" stroke-width="1.51"/><path d="M984,707L825,-116L802,148Z" fill="rgb(182,194,185)" stroke="rgb(182,194,185)" stroke-width="1.51"/><path d="M86,507L-24,583L184,718Z" fill="rgb(216,222,218)" stroke="rgb(216,222,218)" stroke-width="1.51"/><path d="M-87,532L-24,583L86,507Z" fill="rgb(220,226,222)" stroke="rgb(220,226,222)" stroke-width="1.51"/><path d="M124,799L272,940L184,718Z" fill="rgb(193,203,196)" stroke="rgb(193,203,196)" stroke-width="1.51"/><path d="M715,791L272,940L984,707Z" fill="rgb(233,237,234)" stroke="rgb(233,237,234)" stroke-width="1.51"/><path d="M-88,178L-87,532L61,252Z" fill="rgb(176,188,179)" stroke="rgb(176,188,179)" stroke-width="1.51"/><path d="M61,252L-87,532L86,507Z" fill="rgb(194,204,197)" stroke="rgb(194,204,197)" stroke-width="1.51"/><path d="M-24,583L58,934L124,799Z" fill="rgb(222,227,223)" stroke="rgb(222,227,223)" stroke-width="1.51"/><path d="M34,-49L-88,178L61,252Z" fill="rgb(206,214,208)" stroke="rgb(206,214,208)" stroke-width="1.51"/><path d="M170,-19L34,-49L61,252Z" fill="rgb(202,210,204)" stroke="rgb(202,210,204)" stroke-width="1.51"/><path d="M526,-378L371,-10L575,-60Z" fill="rgb(210,218,212)" stroke="rgb(210,218,212)" stroke-width="1.51"/><path d="M-304,864L58,934L-24,583Z" fill="rgb(233,237,234)" stroke="rgb(233,237,234)" stroke-width="1.51"/><path d="M124,799L58,934L272,940Z" fill="rgb(202,210,204)" stroke="rgb(202,210,204)" stroke-width="1.51"/><path d="M825,-116L649,-326L575,-60Z" fill="rgb(233,237,234)" stroke="rgb(233,237,234)" stroke-width="1.51"/><path d="M34,-49L-239,96L-88,178Z" fill="rgb(217,224,219)" stroke="rgb(217,224,219)" stroke-width="1.51"/><path d="M526,-378L84,-178L371,-10Z" fill="rgb(177,189,181)" stroke="rgb(177,189,181)" stroke-width="1.51"/><path d="M649,-326L526,-378L575,-60Z" fill="rgb(229,234,230)" stroke="rgb(229,234,230)" stroke-width="1.51"/><path d="M649,-326L782,-373L526,-378Z" fill="rgb(233,237,234)" stroke="rgb(233,237,234)" stroke-width="1.51"/><path d="M825,-116L782,-373L649,-326Z" fill="rgb(233,237,234)" stroke="rgb(233,237,234)" stroke-width="1.51"/><path d="M984,707L782,-373L825,-116Z" fill="rgb(218,224,219)" stroke="rgb(218,224,219)" stroke-width="1.51"/><path d="M-134,-181L-239,96L34,-49Z" fill="rgb(233,237,234)" stroke="rgb(233,237,234)" stroke-width="1.51"/><path d="M-88,178L-371,285L-87,532Z" fill="rgb(178,190,181)" stroke="rgb(178,190,181)" stroke-width="1.51"/><path d="M84,-178L-134,-181L34,-49Z" fill="rgb(233,237,234)" stroke="rgb(233,237,234)" stroke-width="1.51"/><path d="M-109,-233L-134,-181L84,-178Z" fill="rgb(233,237,234)" stroke="rgb(233,237,234)" stroke-width="1.51"/><path d="M526,-378L-109,-233L84,-178Z" fill="rgb(199,208,201)" stroke="rgb(199,208,201)" stroke-width="1.51"/><path d="M-340,141L-239,96L-134,-181Z" fill="rgb(229,233,230)" stroke="rgb(229,233,230)" stroke-width="1.51"/><path d="M-340,141L-371,285L-239,96Z" fill="rgb(197,207,199)" stroke="rgb(197,207,199)" stroke-width="1.51"/><path d="M-239,96L-371,285L-88,178Z" fill="rgb(194,204,197)" stroke="rgb(194,204,197)" stroke-width="1.51"/><path d="M-87,532L-304,864L-24,583Z" fill="rgb(233,237,234)" stroke="rgb(233,237,234)" stroke-width="1.51"/><path d="M-109,-233L-340,141L-134,-181Z" fill="rgb(233,237,234)" stroke="rgb(233,237,234)" stroke-width="1.51"/><path d="M-371,285L-371,561L-87,532Z" fill="rgb(204,212,206)" stroke="rgb(204,212,206)" stroke-width="1.51"/><path d="M-371,561L-304,864L-87,532Z" fill="rgb(233,237,234)" stroke="rgb(233,237,234)" stroke-width="1.51"/></svg>