<?xml version="1.0" encoding="UTF-8" standalone="no"?>
<!DOCTYPE svg PUBLIC "-//W3C//DTD SVG 1.1//EN" "http://www.w3.org/Graphics/SVG/1.1/DTD/svg11.dtd">
<svg width="100%" height="100%" viewBox="0 0 3600 481" version="1.1" xmlns="http://www.w3.org/2000/svg" xmlns:xlink="http://www.w3.org/1999/xlink" xml:space="preserve" xmlns:serif="http://www.serif.com/" style="fill-rule:evenodd;clip-rule:evenodd;stroke-linejoin:round;stroke-miterlimit:2;">
    <g transform="matrix(1,0,0,1,0,-3.10418)">
        <g transform="matrix(4.16667,0,0,4.16667,0,0)">
            <path d="M418.902,111.011C418.792,110.57 418.737,109.857 418.737,108.868C418.737,107.879 418.846,106.395 419.067,104.417C420.823,92.661 424.285,80.905 429.451,69.147L437.197,50.687C437.417,50.249 437.527,49.919 437.527,49.698L437.692,49.038C437.692,48.16 437.086,47.885 435.878,48.215C431.593,49.755 428.846,50.687 427.637,51.017C426.538,51.457 424.038,52.335 420.138,53.653C416.236,54.972 412.693,56.348 409.507,57.774C408.188,58.214 407.308,59.093 406.87,60.41C401.596,73.048 397.64,84.862 395.003,95.848C394.781,96.615 394.591,97.439 394.426,98.32C394.261,99.199 394.068,100.022 393.849,100.792C393.849,101.011 393.792,101.476 393.684,102.192C393.574,102.906 393.354,103.483 393.025,103.924C392.036,105.572 390.991,106.395 389.893,106.395C388.905,106.395 387.751,105.736 386.432,104.417C385.551,103.647 384.893,102.164 384.454,99.968C384.125,98.32 383.96,96.726 383.96,95.189C383.96,93.539 384.179,91.289 384.619,88.43C385.279,84.585 386.321,80.63 387.751,76.563C389.177,72.499 390.001,70.08 390.223,69.312C390.332,69.093 390.471,68.791 390.635,68.405C390.8,68.022 390.882,67.719 390.882,67.497L390.553,67.333C385.498,69.863 381.817,72.278 379.51,74.586C378.629,75.356 377.944,75.822 377.45,75.987C376.955,76.151 376.432,76.015 375.884,75.575C375.332,75.027 375.06,74.42 375.06,73.761C375.06,73.102 375.278,72.389 375.719,71.618C376.267,70.741 377.367,69.698 379.015,68.487C382.09,66.18 386.375,63.6 391.872,60.741C393.409,59.973 394.508,58.709 395.168,56.95C401.32,42.667 407.419,30.249 413.463,19.701C415.989,15.307 418.516,11.351 421.044,7.833C422.363,6.515 423.188,5.747 423.517,5.526C424.395,4.977 425.219,4.702 425.99,4.702C426.427,4.702 426.978,4.866 427.637,5.196C428.956,5.966 429.505,7.231 429.286,8.987C429.175,9.646 429.01,10.388 428.792,11.212C428.57,12.036 428.405,12.67 428.297,13.108C427.197,16.296 425.768,19.535 424.011,22.832L421.539,27.942C417.802,35.745 414.56,42.775 411.814,49.038L410.826,51.347C411.044,51.676 411.264,51.787 411.485,51.676C411.704,51.568 411.869,51.511 411.979,51.511C416.595,49.644 423.625,47.172 433.077,44.094L440.988,41.456C441.867,41.127 442.636,40.579 443.296,39.809L446.921,35.193C447.689,34.205 449.228,32.256 451.538,29.343C453.844,26.433 455.823,23.713 457.47,21.184C461.205,15.58 465.547,10.416 470.492,5.691C471.258,4.813 472.523,3.604 474.282,2.064C474.5,1.845 475.16,1.462 476.259,0.911C476.59,0.803 476.974,0.745 477.414,0.745C478.181,0.745 478.952,1.022 479.721,1.57C480.599,2.451 480.875,3.659 480.544,5.196C480.435,5.636 479.995,6.461 479.227,7.668L462.746,34.04C462.193,34.81 461.92,35.416 461.92,35.853L462.415,35.853C462.852,35.853 463.429,35.77 464.146,35.606C464.859,35.441 465.381,35.304 465.711,35.193C466.479,35.086 467.22,34.947 467.936,34.782C468.65,34.617 469.392,34.48 470.162,34.369C471.039,34.151 472.249,34.04 473.789,34.04C475.544,34.261 476.479,34.921 476.59,36.018C476.59,37.337 475.819,38.16 474.282,38.49C472.304,39.041 469.611,39.59 466.207,40.139C463.347,40.798 461.205,41.239 459.778,41.456C458.46,41.567 457.525,42.173 456.976,43.27C445.876,61.181 438.186,77.609 433.9,92.551C433.242,94.967 432.417,97.22 431.428,99.309C429.999,102.604 428.9,105.572 428.132,108.208C427.802,109.527 427.746,110.57 427.967,111.34C428.297,112.878 427.967,114.114 426.978,115.049C425.99,115.981 424.725,116.228 423.188,115.79C420.988,115.131 419.562,113.537 418.902,111.011Z" style="fill:white;fill-rule:nonzero;"/>
        </g>
        <g transform="matrix(4.16667,0,0,4.16667,0,0)">
            <path d="M472.962,63.706C476.588,60.851 479.72,57.444 482.357,53.489C483.015,52.281 483.483,51.32 483.758,50.605C484.031,49.89 484.005,49.204 483.675,48.544C482.135,49.315 479.746,51.65 476.506,55.549C473.264,59.451 471.422,62.334 470.984,64.202C470.874,64.532 470.874,64.696 470.984,64.696C471.644,64.477 472.303,64.147 472.962,63.706ZM459.777,97.33C458.237,97.33 456.864,96.973 455.656,96.26C454.446,95.543 453.457,94.529 452.69,93.21C451.592,91.562 451.042,89.419 451.042,86.783C450.711,83.486 451.316,79.805 452.854,75.74C457.468,63.764 464.885,53.71 475.105,45.577C476.752,44.258 478.621,43.162 480.708,42.281C481.257,42.062 482.081,41.952 483.181,41.952C485.048,41.952 486.56,42.667 487.713,44.094C488.869,45.524 489.333,47.061 489.115,48.709C489.223,50.687 488.456,53.106 486.808,55.961C482.411,62.993 476.477,68.323 469.006,71.949C468.125,72.389 467.496,72.8 467.111,73.185C466.724,73.571 466.423,74.091 466.205,74.75C464.557,79.365 463.51,82.607 463.074,84.475C462.743,85.244 462.468,86.509 462.249,88.266L462.249,88.43C462.249,88.87 462.686,88.87 463.568,88.43C468.182,86.452 471.808,84.255 474.446,81.838L480.379,76.234C481.369,75.245 482.192,74.697 482.851,74.586C483.071,74.478 483.4,74.42 483.84,74.42C484.5,74.42 485.048,74.642 485.489,75.079C485.596,75.191 485.653,75.41 485.653,75.74C485.653,76.839 485.325,77.717 484.666,78.377L478.731,84.64C476.643,86.947 473.951,89.337 470.655,91.809C467.359,94.282 464.721,95.956 462.743,96.837C461.755,97.166 460.765,97.33 459.777,97.33Z" style="fill:white;fill-rule:nonzero;"/>
        </g>
        <g transform="matrix(4.16667,0,0,4.16667,0,0)">
            <path d="M487.3,90.574C487.412,88.706 487.741,86.838 488.289,84.97C489.169,82.224 490.981,77.498 493.728,70.795C495.925,65.631 498.344,60.468 500.98,55.302L503.783,49.368C504.22,48.82 504.689,48.106 505.184,47.226C505.677,46.347 506.145,45.634 506.585,45.083C507.462,44.205 508.397,43.764 509.387,43.764C509.716,43.764 510.211,43.875 510.871,44.094C512.296,44.753 513.013,46.017 513.013,47.885C512.901,48.874 512.737,49.726 512.518,50.439C512.296,51.156 512.132,51.787 512.024,52.335C511.583,53.546 511.308,54.642 511.199,55.631C510.978,56.512 510.731,57.308 510.458,58.021C510.182,58.738 509.935,59.422 509.716,60.081C510.154,59.863 510.758,59.422 511.53,58.763L514.495,56.291L519.77,52.335C523.065,50.138 526.363,48.655 529.66,47.885C530.757,47.666 531.638,47.556 532.296,47.556L534.275,47.72C535.702,48.049 536.855,48.93 537.736,50.357C537.954,51.017 538.066,51.457 538.066,51.676C538.066,52.006 537.902,52.446 537.571,52.995C536.583,53.983 535.647,54.148 534.769,53.489C533.888,52.94 533.064,52.665 532.296,52.665C531.638,52.665 530.426,52.995 528.671,53.653C527.13,54.205 525.922,54.808 525.044,55.467C516.253,60.851 509.551,67.445 504.936,75.245C504.277,76.126 503.671,77.333 503.125,78.87C501.146,83.486 499.716,86.947 498.838,89.255C497.849,91.454 497.025,92.938 496.366,93.705C495.156,95.242 493.728,96.012 492.081,96.012C491.75,96.012 491.256,95.902 490.597,95.682C488.4,94.802 487.3,93.102 487.3,90.574Z" style="fill:white;fill-rule:nonzero;"/>
        </g>
        <g transform="matrix(4.16667,0,0,4.16667,0,0)">
            <path d="M0,89.963L6.343,80.615C9.403,82.731 12.563,84.552 15.818,86.082C19.074,87.614 22.482,88.377 26.044,88.377C27.935,88.377 29.606,88.141 31.053,87.668C32.5,87.196 33.724,86.583 34.726,85.831C35.728,85.08 36.48,84.218 36.981,83.243C37.481,82.271 37.731,81.311 37.731,80.365C37.731,79.14 37.356,78.096 36.605,77.234C35.853,76.371 34.852,75.661 33.599,75.105C32.347,74.549 30.872,74.076 29.175,73.686C27.477,73.297 25.71,72.934 23.874,72.6C22.649,72.378 21.23,72.114 19.617,71.807C18.002,71.502 16.332,71.084 14.608,70.555C12.882,70.027 11.185,69.331 9.516,68.467C7.846,67.606 6.343,66.52 5.008,65.213C3.672,63.906 2.6,62.347 1.794,60.537C0.987,58.73 0.583,56.601 0.583,54.152C0.583,50.591 1.306,47.627 2.754,45.261C4.2,42.897 6.051,41.033 8.305,39.669C10.559,38.306 13.064,37.346 15.818,36.788C18.573,36.233 21.23,35.954 23.791,35.954C26.35,35.954 28.632,36.121 30.635,36.455C32.639,36.788 34.503,37.276 36.229,37.915C37.953,38.556 39.637,39.363 41.279,40.336C42.92,41.31 44.688,42.465 46.58,43.801L40.069,52.984C37.174,50.98 34.392,49.451 31.721,48.391C29.05,47.335 26.239,46.806 23.29,46.806C22.288,46.806 21.147,46.931 19.867,47.181C18.586,47.432 17.376,47.836 16.236,48.391C15.094,48.95 14.148,49.659 13.397,50.52C12.646,51.384 12.27,52.428 12.27,53.651C12.27,54.876 12.715,55.905 13.606,56.74C14.496,57.574 15.637,58.271 17.029,58.827C18.419,59.383 19.95,59.857 21.62,60.245C23.29,60.636 24.903,61.026 26.462,61.413C27.63,61.694 29.008,61.972 30.594,62.248C32.18,62.529 33.821,62.916 35.52,63.417C37.216,63.918 38.9,64.586 40.57,65.421C42.239,66.255 43.728,67.327 45.036,68.635C46.343,69.944 47.401,71.557 48.208,73.477C49.014,75.397 49.418,77.721 49.418,80.448C49.418,83.619 48.861,86.374 47.749,88.712C46.635,91.049 45.049,92.983 42.991,94.513C40.93,96.045 38.483,97.199 35.645,97.978C32.806,98.757 29.661,99.146 26.211,99.146C23.039,99.146 20.242,98.909 17.821,98.436C15.401,97.965 13.189,97.324 11.185,96.516C9.182,95.711 7.289,94.75 5.508,93.637C3.727,92.525 1.89,91.299 0,89.963Z" style="fill:white;fill-rule:nonzero;"/>
        </g>
        <g transform="matrix(4.16667,0,0,4.16667,0,0)">
            <path d="M137.404,36.956L137.404,97.978L125.718,97.978L125.718,67.09L106.601,90.048L87.567,67.09L87.567,97.978L75.88,97.978L75.88,36.956L76.632,36.956L106.601,72.183L136.653,36.956L137.404,36.956Z" style="fill:white;fill-rule:nonzero;"/>
        </g>
        <g transform="matrix(4.16667,0,0,4.16667,0,0)">
            <path d="M183.318,78.194L200.766,78.194L192.084,59.744L183.318,78.194ZM160.278,97.978L191.499,36.956L192.668,36.956L223.889,97.978L211.2,97.978L206.442,88.377L177.642,88.377L172.967,97.978L160.278,97.978Z" style="fill:white;fill-rule:nonzero;"/>
        </g>
        <g transform="matrix(4.16667,0,0,4.16667,0,0)">
            <path d="M256.196,68.175L272.255,68.175C273.309,68.175 274.403,67.967 275.541,67.55C276.678,67.133 277.69,66.493 278.577,65.63C279.464,64.768 280.2,63.697 280.783,62.415C281.364,61.136 281.657,59.634 281.657,57.909C281.657,57.019 281.546,55.961 281.324,54.736C281.103,53.513 280.658,52.345 279.993,51.23C279.327,50.118 278.384,49.172 277.163,48.391C275.942,47.614 274.307,47.223 272.255,47.223L256.196,47.223L256.196,68.175ZM256.196,97.978L244.509,97.978L244.509,36.872L272.271,36.872C275.393,36.872 278.25,37.387 280.843,38.416C283.434,39.446 285.65,40.893 287.49,42.757C289.329,44.622 290.765,46.848 291.797,49.435C292.827,52.023 293.344,54.849 293.344,57.909C293.344,62.529 292.187,66.563 289.873,70.012C287.559,73.463 284.479,75.939 280.632,77.442C285.767,84.233 290.839,91.077 295.848,97.978L281.907,97.978C279.465,94.805 277.081,91.606 274.751,88.377C272.422,85.152 270.091,81.867 267.761,78.528L256.196,78.528L256.196,97.978Z" style="fill:white;fill-rule:nonzero;"/>
        </g>
        <g transform="matrix(4.16667,0,0,4.16667,0,0)">
            <path d="M361.711,47.223L344.265,47.223L344.265,97.978L332.578,97.978L332.578,47.223L315.047,47.223L315.047,36.872L361.711,36.872L361.711,47.223Z" style="fill:white;fill-rule:nonzero;"/>
        </g>
        <g transform="matrix(4.16667,0,0,4.16667,0,0)">
            <path d="M612.565,97.978L572.41,61.664L572.41,97.978L560.723,97.978L560.723,36.956L561.976,36.956L602.128,73.852L602.128,36.956L613.816,36.956L613.816,97.978L612.565,97.978Z" style="fill:white;fill-rule:nonzero;"/>
        </g>
        <g transform="matrix(4.16667,0,0,4.16667,0,0)">
            <path d="M655.554,47.223L655.554,62.5L685.104,62.5L685.104,73.102L655.554,73.102L655.554,87.459L688.862,87.459L688.862,97.978L643.868,97.978L643.868,36.872L688.862,36.872L688.862,47.223L655.554,47.223Z" style="fill:white;fill-rule:nonzero;"/>
        </g>
        <g transform="matrix(4.16667,0,0,4.16667,0,0)">
            <path d="M792.792,36.956L770.003,97.978L768.834,97.978L752.304,62.415L735.609,98.061L734.525,98.061L711.985,36.956L724.423,36.956L736.36,70.43L751.888,36.956L752.64,36.956L768.167,70.513L780.354,36.956L792.792,36.956Z" style="fill:white;fill-rule:nonzero;"/>
        </g>
        <g transform="matrix(4.16667,0,0,4.16667,0,0)">
            <path d="M814.581,89.963L820.923,80.615C823.984,82.731 827.144,84.552 830.4,86.082C833.656,87.614 837.063,88.377 840.625,88.377C842.516,88.377 844.186,88.141 845.634,87.668C847.082,87.196 848.305,86.583 849.307,85.831C850.31,85.08 851.06,84.218 851.561,83.243C852.062,82.271 852.313,81.311 852.313,80.365C852.313,79.14 851.936,78.096 851.186,77.234C850.434,76.371 849.432,75.661 848.181,75.105C846.928,74.549 845.452,74.076 843.755,73.686C842.057,73.297 840.291,72.934 838.454,72.6C837.23,72.378 835.811,72.114 834.198,71.807C832.583,71.502 830.913,71.084 829.188,70.555C827.463,70.027 825.765,69.331 824.096,68.467C822.427,67.606 820.923,66.52 819.589,65.213C818.253,63.906 817.181,62.347 816.375,60.537C815.568,58.73 815.165,56.601 815.165,54.152C815.165,50.591 815.887,47.627 817.334,45.261C818.782,42.897 820.631,41.033 822.886,39.669C825.14,38.306 827.644,37.346 830.4,36.788C833.154,36.233 835.811,35.954 838.372,35.954C840.931,35.954 843.213,36.121 845.217,36.455C847.22,36.788 849.084,37.276 850.809,37.915C852.535,38.556 854.218,39.363 855.861,40.336C857.501,41.31 859.267,42.465 861.162,43.801L854.649,52.984C851.755,50.98 848.972,49.451 846.302,48.391C843.631,47.335 840.82,46.806 837.87,46.806C836.869,46.806 835.727,46.931 834.448,47.181C833.167,47.432 831.956,47.836 830.817,48.391C829.674,48.95 828.729,49.659 827.979,50.52C827.227,51.384 826.852,52.428 826.852,53.651C826.852,54.876 827.296,55.905 828.186,56.74C829.077,57.574 830.217,58.271 831.609,58.827C833,59.383 834.532,59.857 836.201,60.245C837.87,60.636 839.484,61.026 841.042,61.413C842.212,61.694 843.589,61.972 845.174,62.248C846.761,62.529 848.402,62.916 850.1,63.417C851.797,63.918 853.481,64.586 855.152,65.421C856.819,66.255 858.309,67.327 859.617,68.635C860.924,69.944 861.982,71.557 862.789,73.477C863.595,75.397 864,77.721 864,80.448C864,83.619 863.443,86.374 862.33,88.712C861.216,91.049 859.63,92.983 857.572,94.513C855.512,96.045 853.064,97.199 850.225,97.978C847.387,98.757 844.243,99.146 840.792,99.146C837.62,99.146 834.824,98.909 832.403,98.436C829.982,97.965 827.769,97.324 825.765,96.516C823.762,95.711 821.871,94.75 820.088,93.637C818.308,92.525 816.471,91.299 814.581,89.963Z" style="fill:white;fill-rule:nonzero;"/>
        </g>
    </g>
</svg>
